<svg width="31" height="34" viewBox="0 0 31 34" fill="none" xmlns="http://www.w3.org/2000/svg">
<g clip-path="url(#clip0_15_63)">
<path d="M26.2071 27.1069L21.0358 18.1992C20.3905 17.0871 20.9872 15.7858 22.1204 15.8334L23.3558 15.887C24.5637 15.9393 25.1329 14.4727 24.3355 13.3618L16.0586 1.81356C15.7871 1.43532 15.4159 1.19267 15.033 1.10584C14.65 1.01901 14.2592 1.08919 13.947 1.3354L4.43333 8.85382C3.51658 9.577 3.8825 11.2541 5.06155 11.743L6.26814 12.2425C7.37374 12.7016 7.78687 14.2313 7.01701 15.0234L0.858147 21.3655C0.0109093 22.2362 0.607648 23.9418 1.85752 24.2249L6.21568 25.2121C7.38555 25.4774 8.37836 26.5039 8.69181 27.7754C9.00789 29.0635 9.33839 30.5444 9.30823 31.013C9.25052 31.8956 9.87218 32.7638 10.6971 32.9506L15.1733 33.964C15.9969 34.1507 16.713 33.5857 16.7694 32.702C16.7996 32.2286 17.3229 30.9083 17.8003 29.7914C18.2567 28.7221 19.3256 28.181 20.4692 28.4403L24.8719 29.437C26.1205 29.7201 26.9166 28.3308 26.2071 27.1069Z" fill="#B20808"/>
<path d="M26.3382 27.0722L21.1669 18.1645C20.5217 17.0524 21.1184 15.7511 22.2516 15.7987L23.487 15.8522C24.6949 15.9046 25.2641 14.438 24.4667 13.3271L16.1897 1.77883C15.9183 1.40059 15.5471 1.15794 15.1641 1.07111C14.7812 0.984285 14.3904 1.05446 14.0782 1.30067L4.5645 8.81909C3.64775 9.54227 4.01366 11.2194 5.19271 11.7082L6.3993 12.2078C7.50491 12.6669 7.91803 14.1965 7.14818 14.9887L0.989311 21.3308C0.142074 22.2014 0.738812 23.9071 1.98868 24.1902L6.34684 25.1774C7.51671 25.4426 8.50953 26.4691 8.82298 27.7406C9.13905 29.0288 9.46955 30.5096 9.43939 30.9783C9.38168 31.8608 10.0033 32.7291 10.8283 32.9159L15.3045 33.9293C16.1281 34.116 16.8442 33.551 16.9006 32.6673C16.9307 32.1939 17.454 30.8736 17.9314 29.7567C18.3878 28.6874 19.4567 28.1462 20.6004 28.4055L25.0031 29.4023C26.2517 29.6854 27.0478 28.2961 26.3382 27.0722Z" fill="#B40909"/>
<path d="M26.4692 27.0379L21.2979 18.1302C20.6527 17.0181 21.2494 15.7169 22.3825 15.7644L23.618 15.818C24.8259 15.8703 25.3951 14.4037 24.5977 13.2928L16.3207 1.74456C16.0492 1.36632 15.6781 1.12367 15.2951 1.03684C14.9122 0.950014 14.5213 1.02019 14.2092 1.2664L4.69548 8.78482C3.77873 9.508 4.14464 11.1851 5.32369 11.674L6.53028 12.1735C7.63589 12.6326 8.04902 14.1623 7.27916 14.9544L1.12029 21.2965C0.273055 22.1672 0.869794 23.8728 2.11967 24.1559L6.47782 25.1431C7.64769 25.4084 8.64051 26.4349 8.95396 27.7064C9.27003 28.9945 9.60054 30.4754 9.57037 30.944C9.51266 31.8266 10.1343 32.6949 10.9593 32.8816L15.4355 33.895C16.2591 34.0817 16.9752 33.5168 17.0316 32.633C17.0617 32.1596 17.585 30.8393 18.0624 29.7225C18.5188 28.6532 19.5877 28.112 20.7313 28.3713L25.1341 29.368C26.3827 29.6511 27.1787 28.2618 26.4692 27.0379Z" fill="#B60A09"/>
<path d="M26.6003 27.0032L21.429 18.0955C20.7838 16.9834 21.3805 15.6821 22.5136 15.7297L23.7491 15.7832C24.957 15.8356 25.5262 14.369 24.7288 13.2581L16.4518 1.70983C16.1803 1.33159 15.8092 1.08894 15.4262 1.00211C15.0433 0.915285 14.6524 0.985461 14.3403 1.23167L4.82658 8.75009C3.90983 9.47327 4.27574 11.1504 5.45479 11.6392L6.66139 12.1388C7.76699 12.5979 8.18012 14.1275 7.41026 14.9197L1.2514 21.2618C0.404159 22.1324 1.0009 23.8381 2.25077 24.1212L6.60893 25.1084C7.77879 25.3736 8.77161 26.4001 9.08506 27.6716C9.40114 28.9598 9.73164 30.4406 9.70147 30.9093C9.64377 31.7918 10.2654 32.6601 11.0904 32.8469L15.5666 33.8603C16.3902 34.047 17.1063 33.482 17.1627 32.5983C17.1928 32.1249 17.7161 30.8046 18.1935 29.6877C18.6499 28.6184 19.7188 28.0772 20.8624 28.3365L25.2652 29.3333C26.5138 29.6164 27.3098 28.2271 26.6003 27.0032Z" fill="#B80B0A"/>
<path d="M26.7317 26.9693L21.5604 18.0617C20.9152 16.9495 21.5119 15.6483 22.6451 15.6959L23.8805 15.7494C25.0884 15.8017 25.6576 14.3352 24.8602 13.2242L16.5832 1.67601C16.3118 1.29777 15.9406 1.05513 15.5576 0.9683C15.1747 0.881471 14.7838 0.951648 14.4717 1.19786L4.95799 8.71628C4.04124 9.43946 4.40715 11.1166 5.5862 11.6054L6.7928 12.105C7.8984 12.5641 8.31153 14.0937 7.54167 14.8859L1.3828 21.2279C0.535568 22.0986 1.13231 23.8043 2.38218 24.0873L6.74033 25.0746C7.9102 25.3398 8.90302 26.3663 9.21647 27.6378C9.53255 28.926 9.86305 30.4068 9.83288 30.8755C9.77386 31.758 10.3955 32.6263 11.2205 32.813L15.6967 33.8264C16.5203 34.0132 17.2364 33.4482 17.2928 32.5645C17.3229 32.0911 17.8462 30.7708 18.3236 29.6539C18.78 28.5846 19.8489 28.0434 20.9925 28.3027L25.3953 29.2995C26.6452 29.5825 27.4413 28.1933 26.7317 26.9693Z" fill="#BA0C0A"/>
<path d="M26.8628 26.9343L21.6915 18.0267C21.0463 16.9145 21.643 15.6133 22.7762 15.6609L24.0116 15.7144C25.2195 15.7667 25.7887 14.3002 24.9913 13.1892L16.7143 1.64101C16.4429 1.26277 16.0717 1.02012 15.6887 0.933296C15.3058 0.846467 14.9149 0.916644 14.6028 1.16286L5.08909 8.68128C4.17234 9.40445 4.53826 11.0816 5.71731 11.5704L6.9239 12.07C8.0295 12.5291 8.44263 14.0587 7.67277 14.8509L1.51391 21.1929C0.666671 22.0636 1.26341 23.7693 2.51328 24.0523L6.87144 25.0396C8.04131 25.3048 9.03412 26.3313 9.34757 27.6028C9.66365 28.891 9.99415 30.3718 9.96398 30.8405C9.90628 31.723 10.5279 32.5913 11.3529 32.778L15.8291 33.7914C16.6527 33.9782 17.3688 33.4132 17.4252 32.5294C17.4553 32.0561 17.9786 30.7358 18.456 29.6189C18.9124 28.5496 19.9813 28.0084 21.125 28.2677L25.5277 29.2644C26.7763 29.5475 27.5724 28.1583 26.8628 26.9343Z" fill="#BC0D0B"/>
<path d="M26.9941 26.9001L21.8228 17.9924C21.1775 16.8803 21.7742 15.5791 22.9074 15.6266L24.1428 15.6802C25.3507 15.7325 25.9199 14.2659 25.1225 13.155L16.8456 1.60677C16.5741 1.22853 16.2029 0.985884 15.82 0.899055C15.437 0.812227 15.0462 0.882403 14.734 1.12862L5.22032 8.64704C4.30357 9.37021 4.66948 11.0473 5.84853 11.5362L7.05513 12.0357C8.16073 12.4949 8.57386 14.0245 7.804 14.8166L1.64513 21.1587C0.797897 22.0294 1.39463 23.735 2.64451 24.0181L7.00266 25.0053C8.17253 25.2706 9.16535 26.2971 9.4788 27.5686C9.79488 28.8567 10.1254 30.3376 10.0952 30.8062C10.0375 31.6888 10.6592 32.5571 11.4841 32.7438L15.9603 33.7572C16.7839 33.9439 17.5 33.379 17.5564 32.4952C17.5866 32.0218 18.1099 30.7015 18.5873 29.5847C19.0437 28.5154 20.1125 27.9742 21.2562 28.2335L25.6589 29.2302C26.9075 29.5133 27.7036 28.124 26.9941 26.9001Z" fill="#BE0F0C"/>
<path d="M27.125 26.866L21.9537 17.9583C21.3084 16.8462 21.9052 15.5449 23.0383 15.5925L24.2737 15.646C25.4816 15.6983 26.0508 14.2318 25.2534 13.1208L16.9765 1.57262C16.705 1.19438 16.3338 0.951735 15.9509 0.864906C15.5679 0.778078 15.1771 0.848254 14.865 1.09447L5.35124 8.61289C4.43449 9.33606 4.8004 11.0132 5.97945 11.502L7.18604 12.0016C8.29165 12.4607 8.70478 13.9903 7.93492 14.7825L1.77605 21.1246C0.928817 21.9952 1.52556 23.7009 2.77543 23.984L7.13358 24.9712C8.30345 25.2364 9.29627 26.2629 9.60972 27.5344C9.92579 28.8226 10.2563 30.3034 10.2261 30.7721C10.1684 31.6546 10.7901 32.5229 11.615 32.7096L16.0912 33.723C16.9148 33.9098 17.6309 33.3448 17.6873 32.4611C17.7175 31.9877 18.2408 30.6674 18.7182 29.5505C19.1746 28.4812 20.2435 27.94 21.3871 28.1993L25.7899 29.1961C27.0384 29.4791 27.8345 28.0899 27.125 26.866Z" fill="#C0100C"/>
<path d="M27.2559 26.8309L22.0846 17.9233C21.4393 16.8111 22.036 15.5099 23.1692 15.5575L24.4046 15.611C25.6125 15.6633 26.1817 14.1968 25.3843 13.0858L17.1074 1.53762C16.8359 1.15938 16.4647 0.916731 16.0818 0.829903C15.6988 0.743074 15.308 0.813251 14.9958 1.05946L5.48213 8.57788C4.56538 9.30106 4.93129 10.9782 6.11034 11.467L7.31693 11.9666C8.42254 12.4257 8.83567 13.9553 8.06581 14.7475L1.90563 21.0884C1.05839 21.959 1.65513 23.6647 2.905 23.9478L7.26316 24.935C8.43303 25.2002 9.42585 26.2267 9.7393 27.4982C10.0554 28.7864 10.3859 30.2672 10.3557 30.7359C10.298 31.6184 10.9197 32.4867 11.7446 32.6735L16.2208 33.6869C17.0444 33.8736 17.7605 33.3086 17.8169 32.4249C17.8471 31.9515 18.3704 30.6312 18.8478 29.5143C19.3042 28.445 20.373 27.9038 21.5167 28.1631L25.9194 29.1599C27.1693 29.4441 27.9654 28.0549 27.2559 26.8309Z" fill="#C2110D"/>
<path d="M27.3875 26.7967L22.2162 17.889C21.571 16.7769 22.1677 15.4756 23.3008 15.5232L24.5363 15.5767C25.7442 15.6291 26.3134 14.1625 25.516 13.0516L17.239 1.50335C16.9675 1.1251 16.5964 0.88246 16.2134 0.795631C15.8305 0.708803 15.4396 0.778979 15.1275 1.02519L5.61378 8.54361C4.69703 9.26679 5.06295 10.9439 6.242 11.4327L7.44859 11.9323C8.55419 12.3914 8.96732 13.921 8.19746 14.7132L2.03728 21.0541C1.19005 21.9248 1.78679 23.6304 3.03666 23.9135L7.39482 24.9007C8.56468 25.166 9.5575 26.1924 9.87095 27.464C10.187 28.7521 10.5175 30.233 10.4874 30.7016C10.4297 31.5842 11.0513 32.4524 11.8763 32.6392L16.3524 33.6526C17.1761 33.8393 17.8922 33.2743 17.9486 32.3906C17.9787 31.9172 18.502 30.5969 18.9794 29.48C19.4358 28.4107 20.5047 27.8696 21.6483 28.1289L26.0511 29.1256C27.301 29.4099 28.097 28.0206 27.3875 26.7967Z" fill="#C4120E"/>
<path d="M27.5184 26.7619L22.3471 17.8543C21.7018 16.7421 22.2986 15.4409 23.4317 15.4885L24.6671 15.542C25.875 15.5943 26.4442 14.1278 25.6468 13.0168L17.3699 1.46862C17.0984 1.09038 16.7272 0.847731 16.3443 0.760902C15.9613 0.674074 15.5705 0.74425 15.2584 0.990463L5.74464 8.50888C4.82789 9.23206 5.1938 10.9092 6.37285 11.398L7.57945 11.8976C8.68505 12.3567 9.09818 13.8863 8.32832 14.6785L2.16814 21.0194C1.32091 21.89 1.91765 23.5957 3.16752 23.8788L7.52567 24.866C8.69554 25.1312 9.68836 26.1577 10.0018 27.4292C10.3179 28.7174 10.6484 30.1982 10.6182 30.6669C10.5605 31.5494 11.1822 32.4177 12.0071 32.6045L16.4833 33.6179C17.3069 33.8046 18.023 33.2396 18.0794 32.3559C18.1096 31.8825 18.6329 30.5622 19.1103 29.4453C19.5667 28.376 20.6356 27.8348 21.7792 28.0941L26.1819 29.0909C27.4318 29.3751 28.2279 27.9859 27.5184 26.7619Z" fill="#C6130E"/>
<path d="M27.6495 26.7281L22.4782 17.8205C21.8329 16.7083 22.4297 15.4071 23.5628 15.4547L24.7983 15.5082C26.0062 15.5605 26.5754 14.094 25.778 12.983L17.501 1.4348C17.2295 1.05656 16.8584 0.813918 16.4754 0.727089C16.0924 0.64026 15.7016 0.710437 15.3895 0.95665L5.87574 8.47507C4.959 9.19824 5.32491 10.8753 6.50396 11.3642L7.71055 11.8638C8.81616 12.3229 9.22928 13.8525 8.45942 14.6447L2.29925 20.9855C1.45201 21.8562 2.04875 23.5619 3.29862 23.8449L7.65678 24.8322C8.82665 25.0974 9.81946 26.1239 10.1329 27.3954C10.449 28.6836 10.7795 30.1644 10.7493 30.633C10.6916 31.5156 11.3133 32.3839 12.1382 32.5706L16.6144 33.584C17.438 33.7708 18.1541 33.2058 18.2105 32.322C18.2407 31.8486 18.764 30.5284 19.2414 29.4115C19.6978 28.3422 20.7667 27.801 21.9103 28.0603L26.313 29.057C27.5629 29.3413 28.359 27.9521 27.6495 26.7281Z" fill="#C8140F"/>
<path d="M27.7807 26.6933L22.6094 17.7856C21.9641 16.6735 22.5609 15.3722 23.694 15.4198L24.9295 15.4733C26.1374 15.5257 26.7066 14.0591 25.9092 12.9482L17.6322 1.39995C17.3607 1.02171 16.9896 0.779067 16.6066 0.692238C16.2237 0.605409 15.8328 0.675586 15.5207 0.921799L6.00697 8.44022C5.09022 9.16339 5.45613 10.8405 6.63518 11.3294L7.84178 11.8289C8.94738 12.288 9.36051 13.8177 8.59065 14.6098L2.43047 20.9507C1.58324 21.8214 2.17997 23.527 3.42985 23.8101L7.788 24.7973C8.95787 25.0626 9.95069 26.0891 10.2641 27.3606C10.5802 28.6487 10.9107 30.1296 10.8806 30.5982C10.8228 31.4808 11.4445 32.349 12.2694 32.5358L16.7456 33.5492C17.5693 33.7359 18.2854 33.1709 18.3417 32.2872C18.3719 31.8138 18.8952 30.4935 19.3726 29.3766C19.829 28.3073 20.8979 27.7662 22.0415 28.0254L26.4443 29.0222C27.6941 29.3065 28.4902 27.9172 27.7807 26.6933Z" fill="#CA150F"/>
<path d="M27.9118 26.6575L22.7405 17.7498C22.0952 16.6377 22.692 15.3364 23.8251 15.384L25.0606 15.4375C26.2685 15.4899 26.8377 14.0233 26.0403 12.9124L17.7633 1.36412C17.4918 0.985884 17.1207 0.743239 16.7377 0.65641C16.3548 0.569581 15.9639 0.639758 15.6518 0.885971L6.13807 8.40439C5.22132 9.12757 5.58724 10.8047 6.76629 11.2935L7.97288 11.7931C9.07848 12.2522 9.49161 13.7818 8.72175 14.574L2.56158 20.9149C1.71434 21.7855 2.31108 23.4912 3.56095 23.7743L7.91911 24.7615C9.08898 25.0268 10.0818 26.0532 10.3952 27.3247C10.7113 28.6129 11.0418 30.0937 11.0117 30.5624C10.9539 31.4449 11.5756 32.3132 12.4005 32.5L16.8767 33.5134C17.7004 33.7001 18.4165 33.1351 18.4728 32.2514C18.503 31.778 19.0263 30.4577 19.5037 29.3408C19.9601 28.2715 21.029 27.7303 22.1726 27.9896L26.5754 28.9864C27.8252 29.2707 28.6213 27.8814 27.9118 26.6575Z" fill="#CC1610"/>
<path d="M28.0427 26.6238L22.8714 17.7161C22.2262 16.604 22.8229 15.3027 23.9561 15.3503L25.1915 15.4038C26.3994 15.4562 26.9686 13.9896 26.1712 12.8787L17.8942 1.33043C17.6228 0.952192 17.2516 0.709548 16.8686 0.622719C16.4857 0.53589 16.0948 0.606067 15.7827 0.85228L6.26899 8.3707C5.35225 9.09387 5.71816 10.771 6.89721 11.2598L8.1038 11.7594C9.2094 12.2185 9.62253 13.7481 8.85267 14.5403L2.6925 20.8812C1.84526 21.7518 2.442 23.4575 3.69187 23.7406L8.05003 24.7278C9.2199 24.9931 10.2127 26.0195 10.5262 27.291C10.8422 28.5792 11.1727 30.06 11.1426 30.5287C11.0849 31.4112 11.7065 32.2795 12.5315 32.4663L17.0077 33.4797C17.8313 33.6664 18.5474 33.1014 18.6038 32.2177C18.6339 31.7443 19.1572 30.424 19.6346 29.3071C20.091 28.2378 21.1599 27.6966 22.3035 27.9559L26.7063 28.9527C27.9562 29.237 28.7523 27.8465 28.0427 26.6238Z" fill="#CE1711"/>
<path d="M28.1741 26.5877L23.0028 17.68C22.3576 16.5679 22.9543 15.2667 24.0875 15.3143L25.3229 15.3678C26.5308 15.4201 27.1 13.9535 26.3026 12.8426L18.0257 1.29558C17.7542 0.917341 17.383 0.674696 17 0.587868C16.6171 0.501039 16.2263 0.571216 15.9141 0.817429L6.4004 8.33585C5.48365 9.05902 5.84957 10.7361 7.02862 11.225L8.23521 11.7245C9.34081 12.1837 9.75394 13.7133 8.98408 14.5054L2.82391 20.8463C1.97667 21.717 2.57341 23.4226 3.82328 23.7057L8.18144 24.693C9.35131 24.9582 10.3441 25.9847 10.6576 27.2562C10.9736 28.5443 11.3041 30.0252 11.274 30.4938C11.2163 31.3764 11.8379 32.2447 12.6629 32.4314L17.1391 33.4448C17.9627 33.6316 18.6788 33.0666 18.7352 32.1828C18.7653 31.7094 19.2886 30.3892 19.766 29.2723C20.2224 28.203 21.2913 27.6618 22.435 27.9211L26.8377 28.9178C28.0876 29.2021 28.8837 27.8117 28.1741 26.5877Z" fill="#D01811"/>
<path d="M28.3053 26.5538L23.134 17.6461C22.4887 16.534 23.0855 15.2328 24.2186 15.2804L25.4541 15.3339C26.662 15.3862 27.2312 13.9196 26.4338 12.8087L18.1568 1.26049C17.8853 0.882246 17.5142 0.639601 17.1312 0.552773C16.7482 0.465944 16.3574 0.53612 16.0453 0.782333L6.53157 8.30194C5.61482 9.02512 5.98073 10.7022 7.15978 11.1911L8.36637 11.6906C9.47198 12.1498 9.8851 13.6794 9.11525 14.4715L2.95507 20.8124C2.10783 21.6831 2.70457 23.3887 3.95444 23.6718L8.3126 24.6591C9.48247 24.9243 10.4753 25.9508 10.7887 27.2223C11.1048 28.5104 11.4353 29.9913 11.4051 30.4599C11.3474 31.3425 11.9691 32.2108 12.794 32.3975L17.2702 33.4109C18.0939 33.5977 18.8099 33.0327 18.8663 32.1489C18.8965 31.6755 19.4198 30.3553 19.8972 29.2384C20.3536 28.1691 21.4225 27.6279 22.5661 27.8872L26.9689 28.8839C28.2187 29.1682 29.0148 27.7778 28.3053 26.5538Z" fill="#D11A12"/>
<path d="M28.4365 26.5196L23.2652 17.6119C22.6199 16.4998 23.2166 15.1985 24.3498 15.2461L25.5852 15.2996C26.7931 15.352 27.3623 13.8854 26.5649 12.7745L18.288 1.22625C18.0165 0.848005 17.6453 0.605361 17.2624 0.518532C16.8794 0.431703 16.4886 0.50188 16.1764 0.748093L6.66273 8.2677C5.74598 8.99088 6.1119 10.668 7.29095 11.1568L8.49754 11.6564C9.60314 12.1155 10.0163 13.6451 9.24641 14.4373L3.08624 20.7782C2.239 21.6488 2.83574 23.3545 4.08561 23.6376L8.44377 24.6248C9.61364 24.8901 10.6064 25.9165 10.9199 27.188C11.236 28.4762 11.5665 29.9571 11.5363 30.4257C11.4786 31.3083 12.1003 32.1765 12.9252 32.3633L17.4014 33.3767C18.225 33.5634 18.9411 32.9984 18.9975 32.1147C19.0277 31.6413 19.551 30.321 20.0284 29.2041C20.4848 28.1348 21.5536 27.5936 22.6973 27.8529L27.1 28.8497C28.3499 29.134 29.146 27.7435 28.4365 26.5196Z" fill="#D31B12"/>
<path d="M28.568 26.4847L23.3967 17.577C22.7514 16.4649 23.3481 15.1637 24.4813 15.2113L25.7167 15.2648C26.9246 15.3171 27.4938 13.8505 26.6964 12.7396L18.4195 1.19139C18.148 0.813154 17.7768 0.570509 17.3939 0.483681C17.0109 0.396852 16.6201 0.467029 16.3079 0.713242L6.79423 8.23285C5.87748 8.95603 6.2434 10.6331 7.42245 11.122L8.62904 11.6215C9.73464 12.0807 10.1478 13.6103 9.37791 14.4024L3.21905 20.7433C2.37181 21.614 2.96855 23.3196 4.21842 23.6027L8.57658 24.59C9.74645 24.8552 10.7393 25.8817 11.0527 27.1532C11.3688 28.4413 11.6993 29.9222 11.6691 30.3908C11.6114 31.2734 12.2331 32.1417 13.058 32.3284L17.5342 33.3418C18.3578 33.5286 19.0739 32.9636 19.1303 32.0798C19.1605 31.6064 19.6838 30.2862 20.1612 29.1693C20.6176 28.1 21.6865 27.5588 22.8301 27.8181L27.2328 28.8148C28.4814 29.0991 29.2775 27.7087 28.568 26.4847Z" fill="#D51C13"/>
<path d="M28.6986 26.4501L23.5273 17.5424C22.882 16.4303 23.4787 15.129 24.6119 15.1766L25.8473 15.2301C27.0552 15.2825 27.6244 13.8159 26.827 12.705L18.5501 1.15673C18.2786 0.778486 17.9074 0.535842 17.5245 0.449013C17.1415 0.362184 16.7507 0.432361 16.4385 0.678574L6.92482 8.19818C6.00807 8.92136 6.37398 10.5985 7.55303 11.0873L8.75962 11.5869C9.86523 12.046 10.2784 13.5756 9.5085 14.3678L3.34832 20.7087C2.50108 21.5793 3.09782 23.285 4.34769 23.5681L8.70585 24.5553C9.87572 24.8205 10.8685 25.847 11.182 27.1185C11.4981 28.4067 11.8286 29.8875 11.7984 30.3562C11.7407 31.2387 12.3623 32.107 13.1873 32.2938L17.6635 33.3072C18.4871 33.4939 19.2032 32.9289 19.2596 32.0452C19.2898 31.5718 19.8131 30.2515 20.2904 29.1346C20.7469 28.0653 21.8157 27.5241 22.9594 27.7834L27.3621 28.7802C28.612 29.0644 29.4081 27.674 28.6986 26.4501Z" fill="#D71D14"/>
<path d="M28.8297 26.4152L23.6584 17.5075C23.0131 16.3954 23.6098 15.0942 24.743 15.1417L25.9784 15.1953C27.1863 15.2476 27.7555 13.781 26.9581 12.6701L18.6812 1.12188C18.4097 0.743635 18.0385 0.50099 17.6556 0.414162C17.2726 0.327333 16.8818 0.39751 16.5696 0.643723L7.05592 8.16333C6.13917 8.88651 6.50508 10.5636 7.68413 11.0525L8.89073 11.552C9.99633 12.0112 10.4095 13.5408 9.6396 14.3329L3.47942 20.6738C2.63219 21.5445 3.22892 23.2501 4.4788 23.5332L8.83695 24.5204C10.0068 24.7857 10.9996 25.8122 11.3131 27.0837C11.6292 28.3718 11.9597 29.8527 11.9295 30.3213C11.8718 31.2039 12.4935 32.0722 13.3184 32.2589L17.7946 33.2723C18.6182 33.459 19.3343 32.8941 19.3907 32.0103C19.4209 31.5369 19.9442 30.2166 20.4215 29.0998C20.878 28.0305 21.9468 27.4893 23.0905 27.7486L27.4932 28.7453C28.7431 29.0296 29.5392 27.6391 28.8297 26.4152Z" fill="#D91E14"/>
<path d="M28.9611 26.3814L23.7898 17.4737C23.1445 16.3616 23.7412 15.0604 24.8744 15.1079L26.1098 15.1615C27.3177 15.2138 27.8869 13.7472 27.0895 12.6363L18.8126 1.08806C18.5411 0.709822 18.1699 0.467177 17.787 0.380348C17.404 0.293519 17.0132 0.363696 16.701 0.609909L7.18733 8.12952C6.27058 8.85269 6.63649 10.5298 7.81554 11.0187L9.02213 11.5182C10.1277 11.9773 10.5409 13.507 9.77101 14.2991L3.61083 20.64C2.76359 21.5107 3.36033 23.2163 4.6102 23.4994L8.96836 24.4866C10.1382 24.7519 11.131 25.7784 11.4445 27.0499C11.7606 28.338 12.0911 29.8189 12.0609 30.2875C12.0032 31.1701 12.6249 32.0383 13.4498 32.2251L17.926 33.2385C18.7496 33.4252 19.4657 32.8602 19.5221 31.9765C19.5523 31.5031 20.0756 30.1828 20.553 29.0659C21.0094 27.9966 22.0782 27.4555 23.2219 27.7148L27.6246 28.7115C28.8745 28.9958 29.6706 27.6053 28.9611 26.3814Z" fill="#DB1F15"/>
<path d="M29.0923 26.3465L23.921 17.4388C23.2757 16.3267 23.8725 15.0255 25.0056 15.0731L26.2411 15.1266C27.449 15.1789 28.0182 13.7123 27.2208 12.6014L18.9438 1.05318C18.6723 0.67494 18.3012 0.432295 17.9182 0.345467C17.5352 0.258638 17.1444 0.328815 16.8323 0.575028L7.31855 8.09464C6.40181 8.81781 6.76772 10.4949 7.94677 10.9838L9.15336 11.4833C10.259 11.9425 10.6721 13.4721 9.90223 14.2642L3.74206 20.6051C2.89482 21.4758 3.49156 23.1814 4.74143 23.4645L9.09959 24.4517C10.2695 24.717 11.2623 25.7435 11.5757 27.015C11.8918 28.3031 12.2223 29.784 12.1921 30.2526C12.1344 31.1352 12.7561 32.0035 13.581 32.1902L18.0572 33.2036C18.8809 33.3904 19.5969 32.8254 19.6533 31.9416C19.6835 31.4682 20.2068 30.148 20.6842 29.0311C21.1406 27.9618 22.2095 27.4206 23.3531 27.6799L27.7559 28.6766C29.0057 28.9609 29.8018 27.5704 29.0923 26.3465Z" fill="#DD2015"/>
<path d="M29.2234 26.3118L24.0521 17.4041C23.4068 16.292 24.0036 14.9908 25.1367 15.0384L26.3722 15.0919C27.5801 15.1442 28.1493 13.6776 27.3519 12.5667L19.0749 1.01848C18.8034 0.640241 18.4323 0.397597 18.0493 0.310768C17.6663 0.223939 17.2755 0.294116 16.9634 0.540329L7.44966 8.05994C6.53291 8.78311 6.89882 10.4602 8.07787 10.9491L9.28446 11.4486C10.3901 11.9078 10.8032 13.4374 10.0333 14.2295L3.87316 20.5704C3.02592 21.4411 3.62266 23.1467 4.87253 23.4298L9.23069 24.417C10.4006 24.6823 11.3934 25.7088 11.7068 26.9803C12.0229 28.2684 12.3534 29.7493 12.3232 30.2179C12.2655 31.1005 12.8872 31.9688 13.7121 32.1555L18.1883 33.1689C19.012 33.3556 19.728 32.7907 19.7844 31.9069C19.8146 31.4335 20.3379 30.1132 20.8153 28.9964C21.2717 27.9271 22.3406 27.3859 23.4842 27.6452L27.887 28.6419C29.1368 28.9262 29.9329 27.5357 29.2234 26.3118Z" fill="#DF2116"/>
<path d="M29.3545 26.2775L24.1832 17.3699C23.5379 16.2577 24.1347 14.9565 25.2678 15.0041L26.5033 15.0576C27.7112 15.1099 28.2804 13.6434 27.483 12.5324L19.206 0.984211C18.9345 0.60597 18.5634 0.363326 18.1804 0.276497C17.7974 0.189668 17.4066 0.259845 17.0945 0.506058L7.58076 8.02567C6.66401 8.74884 7.02992 10.4259 8.20897 10.9148L9.41557 11.4144C10.5212 11.8735 10.9343 13.4031 10.1644 14.1953L4.00426 20.5361C3.15703 21.4068 3.75377 23.1125 5.00364 23.3955L9.36179 24.3828C10.5317 24.648 11.5245 25.6745 11.8379 26.946C12.154 28.2342 12.4845 29.715 12.4543 30.1837C12.3966 31.0662 13.0183 31.9345 13.8432 32.1212L18.3194 33.1346C19.1431 33.3214 19.8591 32.7564 19.9155 31.8727C19.9457 31.3993 20.469 30.079 20.9464 28.9621C21.4028 27.8928 22.4717 27.3516 23.6153 27.6109L28.0181 28.6077C29.2679 28.8919 30.064 27.5015 29.3545 26.2775Z" fill="#E12217"/>
<path d="M29.4854 26.2428L24.3141 17.3351C23.6689 16.223 24.2656 14.9218 25.3987 14.9693L26.6342 15.0229C27.8421 15.0752 28.4113 13.6086 27.6139 12.4977L19.3369 0.949482C19.0654 0.571241 18.6943 0.328597 18.3113 0.241768C17.9284 0.154939 17.5375 0.225116 17.2254 0.471329L7.71168 7.99094C6.79493 8.71411 7.16085 10.3912 8.3399 10.8801L9.54649 11.3796C10.6521 11.8388 11.0652 13.3684 10.2954 14.1605L4.13519 20.5014C3.28795 21.3721 3.88469 23.0777 5.13456 23.3608L9.49272 24.348C10.6626 24.6133 11.6554 25.6398 11.9689 26.9113C12.2849 28.1994 12.6154 29.6803 12.5853 30.1489C12.5276 31.0315 13.1492 31.8998 13.9742 32.0865L18.4503 33.0999C19.274 33.2866 19.9901 32.7217 20.0465 31.8379C20.0766 31.3645 20.5999 30.0442 21.0773 28.9274C21.5337 27.8581 22.6026 27.3169 23.7462 27.5762L28.149 28.5729C29.3989 28.8572 30.1949 27.4667 29.4854 26.2428Z" fill="#E32317"/>
<path d="M29.6166 26.2089L24.4453 17.3012C23.8001 16.1891 24.3968 14.8878 25.53 14.9354L26.7654 14.9889C27.9733 15.0412 28.5425 13.5747 27.7451 12.4637L19.4682 0.915516C19.1967 0.537275 18.8255 0.294631 18.4426 0.207802C18.0596 0.120973 17.6688 0.19115 17.3566 0.437363L7.84291 7.95697C6.92616 8.68015 7.29207 10.3573 8.47112 10.8461L9.67771 11.3457C10.7833 11.8048 11.1964 13.3344 10.4266 14.1266L4.26641 20.4675C3.41917 21.3381 4.01591 23.0438 5.26578 23.3269L9.62394 24.3141C10.7938 24.5793 11.7866 25.6058 12.1001 26.8773C12.4162 28.1655 12.7467 29.6463 12.7165 30.115C12.6588 30.9975 13.2804 31.8658 14.1054 32.0525L18.5816 33.0659C19.4052 33.2527 20.1213 32.6877 20.1777 31.804C20.2078 31.3306 20.7311 30.0103 21.2085 28.8934C21.6649 27.8241 22.7338 27.2829 23.8775 27.5422L28.2802 28.539C29.5301 28.8232 30.3262 27.4328 29.6166 26.2089Z" fill="#E52518"/>
<path d="M29.7477 26.174L24.5765 17.2663C23.9312 16.1542 24.5279 14.853 25.6611 14.9005L26.8965 14.9541C28.1044 15.0064 28.6736 13.5398 27.8762 12.4289L19.5993 0.880665C19.3278 0.502424 18.9566 0.259779 18.5737 0.172951C18.1907 0.086122 17.7999 0.156299 17.4877 0.402512L7.97401 7.92212C7.05726 8.6453 7.42317 10.3224 8.60222 10.8113L9.80882 11.3108C10.9144 11.7699 11.3275 13.2996 10.5577 14.0917L4.39751 20.4326C3.55028 21.3033 4.14702 23.0089 5.39689 23.292L9.75504 24.2792C10.9249 24.5445 11.9177 25.571 12.2312 26.8425C12.5473 28.1306 12.8778 29.6115 12.8476 30.0801C12.7899 30.9627 13.4115 31.831 14.2365 32.0177L18.7127 33.0311C19.5363 33.2178 20.2524 32.6529 20.3088 31.7691C20.339 31.2957 20.8622 29.9754 21.3396 28.8586C21.796 27.7893 22.8649 27.2481 24.0086 27.5074L28.4113 28.5041C29.6612 28.7872 30.4573 27.3979 29.7477 26.174Z" fill="#E72619"/>
<path d="M29.879 26.1398L24.7077 17.2321C24.0624 16.12 24.6592 14.8187 25.7923 14.8663L27.0278 14.9198C28.2357 14.9722 28.8049 13.5056 28.0075 12.3947L19.7305 0.846424C19.459 0.468184 19.0879 0.225539 18.7049 0.13871C18.3219 0.0518812 17.9311 0.122058 17.619 0.368271L8.10527 7.88669C7.18852 8.60987 7.55443 10.287 8.73348 10.7758L9.94007 11.2754C11.0457 11.7345 11.4588 13.2641 10.6889 14.0563L4.53008 20.3984C3.68285 21.269 4.27958 22.9747 5.52946 23.2578L9.88761 24.245C11.0575 24.5102 12.0503 25.5367 12.3637 26.8082C12.6798 28.0964 13.0103 29.5772 12.9802 30.0459C12.9225 30.9284 13.5441 31.7967 14.3691 31.9835L18.8452 32.9969C19.6689 33.1836 20.385 32.6186 20.4414 31.7349C20.4715 31.2615 20.9948 29.9412 21.4722 28.8243C21.9286 27.755 22.9975 27.2138 24.1411 27.4731L28.5439 28.4699C29.7924 28.753 30.5885 27.3637 29.879 26.1398Z" fill="#E92719"/>
<path d="M30.0103 26.105L24.839 17.1973C24.1937 16.0852 24.7904 14.784 25.9236 14.8316L27.159 14.8851C28.3669 14.9374 28.9361 13.4709 28.1387 12.3599L19.8618 0.811695C19.5903 0.433454 19.2191 0.19081 18.8362 0.103981C18.4532 0.0171522 18.0624 0.0873289 17.7502 0.333542L8.23652 7.85196C7.31977 8.57514 7.68569 10.2522 8.86474 10.7411L10.0713 11.2407C11.1769 11.6998 11.5901 13.2294 10.8202 14.0216L4.66003 20.3624C3.81279 21.2331 4.40953 22.9388 5.6594 23.2218L10.0176 24.2091C11.1874 24.4743 12.1802 25.5008 12.4937 26.7723C12.8098 28.0605 13.1403 29.5413 13.1101 30.0099C13.0524 30.8925 13.6741 31.7608 14.499 31.9475L18.9752 32.9609C19.7988 33.1477 20.5149 32.5827 20.5713 31.6989C20.6015 31.2255 21.1248 29.9053 21.6022 28.7884C22.0586 27.7191 23.1274 27.1779 24.2711 27.4372L28.6738 28.4339C29.9237 28.7182 30.7198 27.329 30.0103 26.105Z" fill="#EB281A"/>
<path d="M30.1415 26.0711L24.9702 17.1634C24.3249 16.0513 24.9217 14.75 26.0548 14.7976L27.2903 14.8511C28.4982 14.9035 29.0674 13.4369 28.27 12.326L19.993 0.777729C19.7215 0.399488 19.3504 0.156844 18.9674 0.0700149C18.5844 -0.0168138 18.1936 0.0533629 17.8815 0.299576L8.36775 7.81799C7.451 8.54117 7.81691 10.2183 8.99596 10.7071L10.2026 11.2067C11.3082 11.6658 11.7213 13.1954 10.9514 13.9876L4.79125 20.3285C3.94401 21.1991 4.54075 22.9048 5.79063 23.1879L10.1488 24.1751C11.3187 24.4403 12.3115 25.4668 12.6249 26.7383C12.941 28.0265 13.2715 29.5073 13.2413 29.976C13.1836 30.8585 13.8053 31.7268 14.6302 31.9136L19.1064 32.927C19.93 33.1137 20.6461 32.5487 20.7025 31.665C20.7327 31.1916 21.256 29.8713 21.7334 28.7544C22.1898 27.6851 23.2587 27.1439 24.4023 27.4032L28.8051 28.4C30.0549 28.6843 30.851 27.295 30.1415 26.0711Z" fill="#ED291A"/>
<path d="M30.2724 26.0363L25.1011 17.1287C24.4558 16.0165 25.0526 14.7153 26.1857 14.7629L27.4212 14.8164C28.6291 14.8687 29.1983 13.4022 28.4009 12.2912L20.1239 0.743C19.8524 0.364759 19.4813 0.122115 19.0983 0.0352859C18.7153 -0.0515428 18.3245 0.0186339 18.0124 0.264847L8.49867 7.78327C7.58192 8.50644 7.94783 10.1835 9.12688 10.6724L10.3335 11.172C11.4391 11.6311 11.8522 13.1607 11.0823 13.9529L4.92217 20.2937C4.07494 21.1644 4.67167 22.8701 5.92155 23.1531L10.2797 24.1404C11.4496 24.4056 12.4424 25.4321 12.7558 26.7036C13.0719 27.9918 13.4024 29.4726 13.3722 29.9412C13.3145 30.8238 13.9362 31.6921 14.7611 31.8788L19.2373 32.8922C20.061 33.079 20.777 32.514 20.8334 31.6302C20.8636 31.1569 21.3869 29.8366 21.8643 28.7197C22.3207 27.6504 23.3896 27.1092 24.5332 27.3685L28.936 28.3652C30.1858 28.6495 30.9819 27.2603 30.2724 26.0363Z" fill="#EF2A1B"/>
</g>
<defs>
<clipPath id="clip0_15_63">
<rect width="30.0769" height="34" fill="white" transform="translate(0.461914)"/>
</clipPath>
</defs>
</svg>
